<svg width="1326" height="362" viewBox="0 0 1326 362" fill="none" xmlns="http://www.w3.org/2000/svg">
<g clip-path="url(#clip0_1917_639)">
<rect width="1326" height="362" rx="8" fill="#E6E0DB"/>
<g clip-path="url(#clip1_1917_639)">
<rect x="-0.148438" y="121" width="1.36347" height="120.667" fill="#9478FC" fill-opacity="0.8"/>
<rect x="17.5762" y="121" width="0.681733" height="120.667" fill="#9478FC" fill-opacity="0.8"/>
<rect width="1.36347" height="120.667" transform="matrix(-1 0 0 1 35.9824 121)" fill="#9478FC" fill-opacity="0.8"/>
<rect width="2.0452" height="120.667" transform="matrix(-1 0 0 1 54.3906 121)" fill="#9478FC" fill-opacity="0.8"/>
<rect width="2.72693" height="120.667" transform="matrix(-1 0 0 1 73.4785 121)" fill="#9478FC" fill-opacity="0.8"/>
<rect width="3.40866" height="120.667" transform="matrix(-1 0 0 1 93.248 121)" fill="#9478FC" fill-opacity="0.8"/>
<rect width="4.0904" height="120.667" transform="matrix(-1 0 0 1 113.701 121)" fill="#9478FC" fill-opacity="0.8"/>
<rect width="4.77213" height="120.667" transform="matrix(-1 0 0 1 134.834 121)" fill="#9478FC" fill-opacity="0.8"/>
<rect x="151.195" y="121" width="5.45386" height="120.667" fill="#9478FC" fill-opacity="0.8"/>
<rect x="173.012" y="121" width="4.77213" height="120.667" fill="#9478FC" fill-opacity="0.8"/>
<rect x="194.145" y="121" width="4.0904" height="120.667" fill="#9478FC" fill-opacity="0.8"/>
<rect x="214.598" y="121" width="3.40866" height="120.667" fill="#9478FC" fill-opacity="0.8"/>
<rect x="234.367" y="121" width="2.72693" height="120.667" fill="#9478FC" fill-opacity="0.8"/>
<rect x="253.455" y="121" width="2.0452" height="120.667" fill="#9478FC" fill-opacity="0.8"/>
<rect x="271.863" y="121" width="1.36347" height="120.667" fill="#9478FC" fill-opacity="0.8"/>
<rect x="289.588" y="121" width="0.681733" height="120.667" fill="#9478FC" fill-opacity="0.8"/>
<rect width="1.36347" height="120.667" transform="matrix(-1 0 0 1 307.994 121)" fill="#9478FC" fill-opacity="0.8"/>
<rect width="2.0452" height="120.667" transform="matrix(-1 0 0 1 326.4 121)" fill="#9478FC" fill-opacity="0.8"/>
<rect width="2.72693" height="120.667" transform="matrix(-1 0 0 1 345.49 121)" fill="#9478FC" fill-opacity="0.8"/>
<rect width="3.40866" height="120.667" transform="matrix(-1 0 0 1 365.26 121)" fill="#9478FC" fill-opacity="0.8"/>
<rect width="4.0904" height="120.667" transform="matrix(-1 0 0 1 385.711 121)" fill="#9478FC" fill-opacity="0.8"/>
<rect width="4.77213" height="120.667" transform="matrix(-1 0 0 1 406.846 121)" fill="#9478FC" fill-opacity="0.8"/>
<rect x="423.207" y="121" width="5.45386" height="120.667" fill="#9478FC" fill-opacity="0.8"/>
<rect x="445.023" y="121" width="4.77213" height="120.667" fill="#9478FC" fill-opacity="0.8"/>
<rect x="466.156" y="121" width="4.0904" height="120.667" fill="#9478FC" fill-opacity="0.8"/>
<rect x="486.607" y="121" width="3.40866" height="120.667" fill="#9478FC" fill-opacity="0.8"/>
<rect x="506.379" y="121" width="2.72693" height="120.667" fill="#9478FC" fill-opacity="0.8"/>
<rect x="525.467" y="121" width="2.0452" height="120.667" fill="#9478FC" fill-opacity="0.8"/>
<rect x="543.873" y="121" width="1.36347" height="120.667" fill="#9478FC" fill-opacity="0.8"/>
<rect x="561.6" y="121" width="0.681733" height="120.667" fill="#9478FC" fill-opacity="0.8"/>
<rect width="1.36347" height="120.667" transform="matrix(-1 0 0 1 580.006 121)" fill="#9478FC" fill-opacity="0.8"/>
<rect width="2.0452" height="120.667" transform="matrix(-1 0 0 1 598.412 121)" fill="#9478FC" fill-opacity="0.8"/>
<rect width="0.681733" height="120.667" transform="matrix(-1 0 0 1 615.455 121)" fill="#9478FC" fill-opacity="0.8"/>
<rect width="1.36347" height="120.667" transform="matrix(-1 0 0 1 633.182 121)" fill="#9478FC" fill-opacity="0.8"/>
<rect width="2.0452" height="120.667" transform="matrix(-1 8.74228e-08 8.74228e-08 1 651.588 121)" fill="#9478FC" fill-opacity="0.8"/>
<rect width="2.72693" height="120.667" transform="matrix(-1 0 0 1 670.676 121)" fill="#9478FC" fill-opacity="0.8"/>
<rect width="3.40866" height="120.667" transform="matrix(-1 0 0 1 690.445 121)" fill="#9478FC" fill-opacity="0.8"/>
<rect width="4.09041" height="120.667" transform="matrix(-1 7.73692e-08 9.87828e-08 1 710.898 121)" fill="#9478FC" fill-opacity="0.8"/>
<rect width="4.77213" height="120.667" transform="matrix(-1 0 0 1 732.031 121)" fill="#9478FC" fill-opacity="0.8"/>
<rect x="748.395" y="121" width="4.0904" height="120.667" fill="#9478FC" fill-opacity="0.8"/>
<rect x="768.846" y="121" width="3.40866" height="120.667" fill="#9478FC" fill-opacity="0.8"/>
<rect x="788.615" y="121" width="2.72693" height="120.667" fill="#9478FC" fill-opacity="0.8"/>
<rect x="807.705" y="121" width="2.0452" height="120.667" fill="#9478FC" fill-opacity="0.8"/>
<rect x="826.111" y="121" width="1.36347" height="120.667" fill="#9478FC" fill-opacity="0.8"/>
<rect x="843.836" y="121" width="0.681733" height="120.667" fill="#9478FC" fill-opacity="0.8"/>
<rect width="1.36347" height="120.667" transform="matrix(-1 0 0 1 862.242 121)" fill="#9478FC" fill-opacity="0.8"/>
<rect width="2.0452" height="120.667" transform="matrix(-1 0 0 1 880.65 121)" fill="#9478FC" fill-opacity="0.8"/>
<rect width="2.72693" height="120.667" transform="matrix(-1 0 0 1 899.738 121)" fill="#9478FC" fill-opacity="0.8"/>
<rect width="3.40866" height="120.667" transform="matrix(-1 0 0 1 919.508 121)" fill="#9478FC" fill-opacity="0.8"/>
<rect width="4.0904" height="120.667" transform="matrix(-1 0 0 1 939.961 121)" fill="#9478FC" fill-opacity="0.8"/>
<rect width="4.77213" height="120.667" transform="matrix(-1 0 0 1 961.094 121)" fill="#9478FC" fill-opacity="0.8"/>
<rect x="977.455" y="121" width="5.45386" height="120.667" fill="#9478FC" fill-opacity="0.8"/>
<rect x="999.271" y="121" width="4.77213" height="120.667" fill="#9478FC" fill-opacity="0.8"/>
<rect x="1020.4" y="121" width="4.0904" height="120.667" fill="#9478FC" fill-opacity="0.8"/>
<rect x="1040.86" y="121" width="3.40866" height="120.667" fill="#9478FC" fill-opacity="0.8"/>
<rect x="1060.63" y="121" width="2.72693" height="120.667" fill="#9478FC" fill-opacity="0.8"/>
<rect x="1079.71" y="121" width="2.0452" height="120.667" fill="#9478FC" fill-opacity="0.8"/>
<rect x="1098.12" y="121" width="1.36347" height="120.667" fill="#9478FC" fill-opacity="0.8"/>
<rect x="1115.85" y="121" width="0.681733" height="120.667" fill="#9478FC" fill-opacity="0.8"/>
<rect width="1.36347" height="120.667" transform="matrix(-1 0 0 1 1134.25 121)" fill="#9478FC" fill-opacity="0.8"/>
<rect width="2.0452" height="120.667" transform="matrix(-1 0 0 1 1152.66 121)" fill="#9478FC" fill-opacity="0.8"/>
<rect width="2.72693" height="120.667" transform="matrix(-1 0 0 1 1171.75 121)" fill="#9478FC" fill-opacity="0.8"/>
<rect width="3.40866" height="120.667" transform="matrix(-1 0 0 1 1191.52 121)" fill="#9478FC" fill-opacity="0.8"/>
<rect width="4.0904" height="120.667" transform="matrix(-1 0 0 1 1211.97 121)" fill="#9478FC" fill-opacity="0.8"/>
<rect width="4.77213" height="120.667" transform="matrix(-1 0 0 1 1233.11 121)" fill="#9478FC" fill-opacity="0.8"/>
<rect x="1249.47" y="121" width="5.45386" height="120.667" fill="#9478FC" fill-opacity="0.8"/>
<rect x="1271.28" y="121" width="4.77213" height="120.667" fill="#9478FC" fill-opacity="0.8"/>
<rect x="1292.42" y="121" width="4.0904" height="120.667" fill="#9478FC" fill-opacity="0.8"/>
<rect x="1312.87" y="121" width="3.40866" height="120.667" fill="#9478FC" fill-opacity="0.8"/>
</g>
<g clip-path="url(#clip2_1917_639)">
<rect x="2.36719" y="241" width="2.72693" height="120.667" fill="#9478FC" fill-opacity="0.8"/>
<rect x="21.4551" y="241" width="2.0452" height="120.667" fill="#9478FC" fill-opacity="0.8"/>
<rect x="39.8633" y="241" width="1.36347" height="120.667" fill="#9478FC" fill-opacity="0.8"/>
<rect x="57.5879" y="241" width="0.681733" height="120.667" fill="#9478FC" fill-opacity="0.8"/>
<rect width="1.36347" height="120.667" transform="matrix(-1 0 0 1 75.9941 241)" fill="#9478FC" fill-opacity="0.8"/>
<rect width="2.0452" height="120.667" transform="matrix(-1 0 0 1 94.4004 241)" fill="#9478FC" fill-opacity="0.8"/>
<rect width="2.72693" height="120.667" transform="matrix(-1 0 0 1 113.49 241)" fill="#9478FC" fill-opacity="0.8"/>
<rect width="3.40866" height="120.667" transform="matrix(-1 0 0 1 133.26 241)" fill="#9478FC" fill-opacity="0.8"/>
<rect width="4.0904" height="120.667" transform="matrix(-1 0 0 1 153.711 241)" fill="#9478FC" fill-opacity="0.8"/>
<rect width="4.77213" height="120.667" transform="matrix(-1 0 0 1 174.846 241)" fill="#9478FC" fill-opacity="0.8"/>
<rect x="191.207" y="241" width="5.45386" height="120.667" fill="#9478FC" fill-opacity="0.8"/>
<rect x="213.023" y="241" width="4.77213" height="120.667" fill="#9478FC" fill-opacity="0.8"/>
<rect x="234.156" y="241" width="4.0904" height="120.667" fill="#9478FC" fill-opacity="0.8"/>
<rect x="254.607" y="241" width="3.40866" height="120.667" fill="#9478FC" fill-opacity="0.8"/>
<rect x="274.379" y="241" width="2.72693" height="120.667" fill="#9478FC" fill-opacity="0.8"/>
<rect x="293.467" y="241" width="2.0452" height="120.667" fill="#9478FC" fill-opacity="0.8"/>
<rect x="311.873" y="241" width="1.36347" height="120.667" fill="#9478FC" fill-opacity="0.8"/>
<rect x="329.6" y="241" width="0.681733" height="120.667" fill="#9478FC" fill-opacity="0.8"/>
<rect width="1.36347" height="120.667" transform="matrix(-1 0 0 1 348.006 241)" fill="#9478FC" fill-opacity="0.8"/>
<rect width="2.0452" height="120.667" transform="matrix(-1 0 0 1 366.412 241)" fill="#9478FC" fill-opacity="0.8"/>
<rect width="0.681733" height="120.667" transform="matrix(-1 0 0 1 383.455 241)" fill="#9478FC" fill-opacity="0.8"/>
<rect width="1.36347" height="120.667" transform="matrix(-1 0 0 1 401.182 241)" fill="#9478FC" fill-opacity="0.8"/>
<rect width="2.0452" height="120.667" transform="matrix(-1 8.74228e-08 8.74228e-08 1 419.588 241)" fill="#9478FC" fill-opacity="0.8"/>
<rect width="2.72693" height="120.667" transform="matrix(-1 0 0 1 438.676 241)" fill="#9478FC" fill-opacity="0.8"/>
<rect width="3.40866" height="120.667" transform="matrix(-1 0 0 1 458.445 241)" fill="#9478FC" fill-opacity="0.8"/>
<rect width="4.09041" height="120.667" transform="matrix(-1 7.73692e-08 9.87828e-08 1 478.898 241)" fill="#9478FC" fill-opacity="0.8"/>
<rect width="4.77213" height="120.667" transform="matrix(-1 0 0 1 500.031 241)" fill="#9478FC" fill-opacity="0.8"/>
<rect x="516.395" y="241" width="4.0904" height="120.667" fill="#9478FC" fill-opacity="0.8"/>
<rect x="536.846" y="241" width="3.40866" height="120.667" fill="#9478FC" fill-opacity="0.8"/>
<rect x="556.615" y="241" width="2.72693" height="120.667" fill="#9478FC" fill-opacity="0.8"/>
<rect x="575.705" y="241" width="2.0452" height="120.667" fill="#9478FC" fill-opacity="0.8"/>
<rect x="594.111" y="241" width="1.36347" height="120.667" fill="#9478FC" fill-opacity="0.8"/>
<rect x="611.836" y="241" width="0.681733" height="120.667" fill="#9478FC" fill-opacity="0.8"/>
<rect width="1.36347" height="120.667" transform="matrix(-1 0 0 1 630.242 241)" fill="#9478FC" fill-opacity="0.8"/>
<rect width="2.0452" height="120.667" transform="matrix(-1 0 0 1 648.65 241)" fill="#9478FC" fill-opacity="0.8"/>
<rect width="2.72693" height="120.667" transform="matrix(-1 0 0 1 667.738 241)" fill="#9478FC" fill-opacity="0.8"/>
<rect width="3.40866" height="120.667" transform="matrix(-1 0 0 1 687.508 241)" fill="#9478FC" fill-opacity="0.8"/>
<rect width="4.0904" height="120.667" transform="matrix(-1 0 0 1 707.961 241)" fill="#9478FC" fill-opacity="0.8"/>
<rect width="4.77213" height="120.667" transform="matrix(-1 0 0 1 729.094 241)" fill="#9478FC" fill-opacity="0.8"/>
<rect x="745.455" y="241" width="5.45386" height="120.667" fill="#9478FC" fill-opacity="0.8"/>
<rect x="767.271" y="241" width="4.77213" height="120.667" fill="#9478FC" fill-opacity="0.8"/>
<rect x="788.404" y="241" width="4.0904" height="120.667" fill="#9478FC" fill-opacity="0.8"/>
<rect x="808.857" y="241" width="3.40866" height="120.667" fill="#9478FC" fill-opacity="0.8"/>
<rect x="828.627" y="241" width="2.72693" height="120.667" fill="#9478FC" fill-opacity="0.8"/>
<rect x="847.715" y="241" width="2.0452" height="120.667" fill="#9478FC" fill-opacity="0.8"/>
<rect x="866.123" y="241" width="1.36347" height="120.667" fill="#9478FC" fill-opacity="0.8"/>
<rect x="883.848" y="241" width="0.681733" height="120.667" fill="#9478FC" fill-opacity="0.8"/>
<rect width="1.36347" height="120.667" transform="matrix(-1 0 0 1 902.254 241)" fill="#9478FC" fill-opacity="0.8"/>
<rect width="2.0452" height="120.667" transform="matrix(-1 0 0 1 920.66 241)" fill="#9478FC" fill-opacity="0.8"/>
<rect width="2.72693" height="120.667" transform="matrix(-1 0 0 1 939.75 241)" fill="#9478FC" fill-opacity="0.8"/>
<rect width="3.40866" height="120.667" transform="matrix(-1 0 0 1 959.52 241)" fill="#9478FC" fill-opacity="0.8"/>
<rect width="4.0904" height="120.667" transform="matrix(-1 0 0 1 979.973 241)" fill="#9478FC" fill-opacity="0.8"/>
<rect width="4.77213" height="120.667" transform="matrix(-1 0 0 1 1001.11 241)" fill="#9478FC" fill-opacity="0.8"/>
<rect x="1017.47" y="241" width="5.45386" height="120.667" fill="#9478FC" fill-opacity="0.8"/>
<rect x="1039.28" y="241" width="4.77213" height="120.667" fill="#9478FC" fill-opacity="0.8"/>
<rect x="1060.42" y="241" width="4.0904" height="120.667" fill="#9478FC" fill-opacity="0.8"/>
<rect x="1080.87" y="241" width="3.40866" height="120.667" fill="#9478FC" fill-opacity="0.8"/>
<rect x="1100.64" y="241" width="2.72693" height="120.667" fill="#9478FC" fill-opacity="0.8"/>
<rect x="1119.73" y="241" width="2.0452" height="120.667" fill="#9478FC" fill-opacity="0.8"/>
<rect x="1138.13" y="241" width="1.36347" height="120.667" fill="#9478FC" fill-opacity="0.8"/>
<rect x="1155.86" y="241" width="0.681733" height="120.667" fill="#9478FC" fill-opacity="0.8"/>
<rect width="1.36347" height="120.667" transform="matrix(-1 0 0 1 1174.27 241)" fill="#9478FC" fill-opacity="0.8"/>
<rect width="2.0452" height="120.667" transform="matrix(-1 0 0 1 1192.67 241)" fill="#9478FC" fill-opacity="0.8"/>
<rect width="0.681733" height="120.667" transform="matrix(-1 0 0 1 1209.71 241)" fill="#9478FC" fill-opacity="0.8"/>
<rect width="1.36347" height="120.667" transform="matrix(-1 0 0 1 1227.44 241)" fill="#9478FC" fill-opacity="0.8"/>
<rect width="2.0452" height="120.667" transform="matrix(-1 8.74228e-08 8.74228e-08 1 1245.85 241)" fill="#9478FC" fill-opacity="0.8"/>
<rect width="2.72693" height="120.667" transform="matrix(-1 0 0 1 1264.94 241)" fill="#9478FC" fill-opacity="0.8"/>
<rect width="3.40866" height="120.667" transform="matrix(-1 0 0 1 1284.71 241)" fill="#9478FC" fill-opacity="0.8"/>
<rect width="4.09041" height="120.667" transform="matrix(-1 7.73692e-08 9.87828e-08 1 1305.16 241)" fill="#9478FC" fill-opacity="0.8"/>
<rect width="4.77213" height="120.667" transform="matrix(-1 0 0 1 1326.29 241)" fill="#9478FC" fill-opacity="0.8"/>
</g>
<g clip-path="url(#clip3_1917_639)">
<rect y="0.333374" width="4.77213" height="120.667" fill="#9478FC" fill-opacity="0.8"/>
<rect x="21.1328" y="0.333374" width="4.0904" height="120.667" fill="#9478FC" fill-opacity="0.8"/>
<rect x="41.5859" y="0.333374" width="3.40866" height="120.667" fill="#9478FC" fill-opacity="0.8"/>
<rect x="61.3555" y="0.333374" width="2.72693" height="120.667" fill="#9478FC" fill-opacity="0.8"/>
<rect x="80.4453" y="0.333374" width="2.0452" height="120.667" fill="#9478FC" fill-opacity="0.8"/>
<rect x="98.8516" y="0.333374" width="1.36347" height="120.667" fill="#9478FC" fill-opacity="0.8"/>
<rect x="116.576" y="0.333374" width="0.681733" height="120.667" fill="#9478FC" fill-opacity="0.8"/>
<rect width="1.36347" height="120.667" transform="matrix(-1 0 0 1 134.982 0.333374)" fill="#9478FC" fill-opacity="0.8"/>
<rect width="2.0452" height="120.667" transform="matrix(-1 0 0 1 153.391 0.333374)" fill="#9478FC" fill-opacity="0.8"/>
<rect width="2.72693" height="120.667" transform="matrix(-1 0 0 1 172.479 0.333374)" fill="#9478FC" fill-opacity="0.8"/>
<rect width="3.40866" height="120.667" transform="matrix(-1 0 0 1 192.248 0.333374)" fill="#9478FC" fill-opacity="0.8"/>
<rect width="4.0904" height="120.667" transform="matrix(-1 0 0 1 212.701 0.333374)" fill="#9478FC" fill-opacity="0.8"/>
<rect width="4.77213" height="120.667" transform="matrix(-1 0 0 1 233.834 0.333374)" fill="#9478FC" fill-opacity="0.8"/>
<rect x="250.195" y="0.333374" width="5.45386" height="120.667" fill="#9478FC" fill-opacity="0.8"/>
<rect x="272.012" y="0.333374" width="4.77213" height="120.667" fill="#9478FC" fill-opacity="0.8"/>
<rect x="293.145" y="0.333374" width="4.0904" height="120.667" fill="#9478FC" fill-opacity="0.8"/>
<rect x="313.598" y="0.333374" width="3.40866" height="120.667" fill="#9478FC" fill-opacity="0.8"/>
<rect x="333.367" y="0.333374" width="2.72693" height="120.667" fill="#9478FC" fill-opacity="0.8"/>
<rect x="352.455" y="0.333374" width="2.0452" height="120.667" fill="#9478FC" fill-opacity="0.8"/>
<rect x="370.863" y="0.333374" width="1.36347" height="120.667" fill="#9478FC" fill-opacity="0.8"/>
<rect x="388.588" y="0.333374" width="0.681733" height="120.667" fill="#9478FC" fill-opacity="0.8"/>
<rect width="1.36347" height="120.667" transform="matrix(-1 0 0 1 406.994 0.333374)" fill="#9478FC" fill-opacity="0.8"/>
<rect width="2.0452" height="120.667" transform="matrix(-1 0 0 1 425.4 0.333374)" fill="#9478FC" fill-opacity="0.8"/>
<rect width="2.72693" height="120.667" transform="matrix(-1 0 0 1 444.49 0.333374)" fill="#9478FC" fill-opacity="0.8"/>
<rect width="3.40866" height="120.667" transform="matrix(-1 0 0 1 464.26 0.333374)" fill="#9478FC" fill-opacity="0.8"/>
<rect width="4.0904" height="120.667" transform="matrix(-1 0 0 1 484.711 0.333374)" fill="#9478FC" fill-opacity="0.8"/>
<rect width="4.77213" height="120.667" transform="matrix(-1 0 0 1 505.846 0.333374)" fill="#9478FC" fill-opacity="0.8"/>
<rect x="522.207" y="0.333374" width="5.45386" height="120.667" fill="#9478FC" fill-opacity="0.8"/>
<rect x="544.023" y="0.333374" width="4.77213" height="120.667" fill="#9478FC" fill-opacity="0.8"/>
<rect x="565.156" y="0.333374" width="4.0904" height="120.667" fill="#9478FC" fill-opacity="0.8"/>
<rect x="585.607" y="0.333374" width="3.40866" height="120.667" fill="#9478FC" fill-opacity="0.8"/>
<rect x="605.379" y="0.333374" width="2.72693" height="120.667" fill="#9478FC" fill-opacity="0.8"/>
<rect x="624.467" y="0.333374" width="2.0452" height="120.667" fill="#9478FC" fill-opacity="0.8"/>
<rect x="642.873" y="0.333374" width="1.36347" height="120.667" fill="#9478FC" fill-opacity="0.8"/>
<rect x="660.6" y="0.333374" width="0.681733" height="120.667" fill="#9478FC" fill-opacity="0.8"/>
<rect width="1.36347" height="120.667" transform="matrix(-1 0 0 1 679.006 0.333374)" fill="#9478FC" fill-opacity="0.8"/>
<rect width="2.0452" height="120.667" transform="matrix(-1 0 0 1 697.412 0.333374)" fill="#9478FC" fill-opacity="0.8"/>
<rect width="0.681733" height="120.667" transform="matrix(-1 0 0 1 714.455 0.333374)" fill="#9478FC" fill-opacity="0.8"/>
<rect width="1.36347" height="120.667" transform="matrix(-1 0 0 1 732.182 0.333374)" fill="#9478FC" fill-opacity="0.8"/>
<rect width="2.0452" height="120.667" transform="matrix(-1 8.74228e-08 8.74228e-08 1 750.588 0.333374)" fill="#9478FC" fill-opacity="0.8"/>
<rect width="2.72693" height="120.667" transform="matrix(-1 0 0 1 769.676 0.333374)" fill="#9478FC" fill-opacity="0.8"/>
<rect width="3.40866" height="120.667" transform="matrix(-1 0 0 1 789.445 0.333374)" fill="#9478FC" fill-opacity="0.8"/>
<rect width="4.09041" height="120.667" transform="matrix(-1 7.73692e-08 9.87828e-08 1 809.898 0.333374)" fill="#9478FC" fill-opacity="0.8"/>
<rect width="4.77213" height="120.667" transform="matrix(-1 0 0 1 831.031 0.333374)" fill="#9478FC" fill-opacity="0.8"/>
<rect x="847.395" y="0.333374" width="4.0904" height="120.667" fill="#9478FC" fill-opacity="0.8"/>
<rect x="867.846" y="0.333374" width="3.40866" height="120.667" fill="#9478FC" fill-opacity="0.8"/>
<rect x="887.615" y="0.333374" width="2.72693" height="120.667" fill="#9478FC" fill-opacity="0.8"/>
<rect x="906.705" y="0.333374" width="2.0452" height="120.667" fill="#9478FC" fill-opacity="0.8"/>
<rect x="925.111" y="0.333374" width="1.36347" height="120.667" fill="#9478FC" fill-opacity="0.8"/>
<rect x="942.836" y="0.333374" width="0.681733" height="120.667" fill="#9478FC" fill-opacity="0.8"/>
<rect width="1.36347" height="120.667" transform="matrix(-1 0 0 1 961.242 0.333374)" fill="#9478FC" fill-opacity="0.8"/>
<rect width="2.0452" height="120.667" transform="matrix(-1 0 0 1 979.65 0.333374)" fill="#9478FC" fill-opacity="0.8"/>
<rect width="2.72693" height="120.667" transform="matrix(-1 0 0 1 998.738 0.333374)" fill="#9478FC" fill-opacity="0.8"/>
<rect width="3.40866" height="120.667" transform="matrix(-1 0 0 1 1018.51 0.333374)" fill="#9478FC" fill-opacity="0.8"/>
<rect width="4.0904" height="120.667" transform="matrix(-1 0 0 1 1038.96 0.333374)" fill="#9478FC" fill-opacity="0.8"/>
<rect width="4.77213" height="120.667" transform="matrix(-1 0 0 1 1060.09 0.333374)" fill="#9478FC" fill-opacity="0.8"/>
<rect x="1076.46" y="0.333374" width="5.45386" height="120.667" fill="#9478FC" fill-opacity="0.8"/>
<rect x="1098.27" y="0.333374" width="4.77213" height="120.667" fill="#9478FC" fill-opacity="0.8"/>
<rect x="1119.4" y="0.333374" width="4.0904" height="120.667" fill="#9478FC" fill-opacity="0.8"/>
<rect x="1139.86" y="0.333374" width="3.40866" height="120.667" fill="#9478FC" fill-opacity="0.8"/>
<rect x="1159.63" y="0.333374" width="2.72693" height="120.667" fill="#9478FC" fill-opacity="0.8"/>
<rect x="1178.71" y="0.333374" width="2.0452" height="120.667" fill="#9478FC" fill-opacity="0.8"/>
<rect x="1197.12" y="0.333374" width="1.36347" height="120.667" fill="#9478FC" fill-opacity="0.8"/>
<rect x="1214.85" y="0.333374" width="0.681733" height="120.667" fill="#9478FC" fill-opacity="0.8"/>
<rect width="1.36347" height="120.667" transform="matrix(-1 0 0 1 1233.25 0.333374)" fill="#9478FC" fill-opacity="0.8"/>
<rect width="2.0452" height="120.667" transform="matrix(-1 0 0 1 1251.66 0.333374)" fill="#9478FC" fill-opacity="0.8"/>
<rect width="2.72693" height="120.667" transform="matrix(-1 0 0 1 1270.75 0.333374)" fill="#9478FC" fill-opacity="0.8"/>
<rect width="3.40866" height="120.667" transform="matrix(-1 0 0 1 1290.52 0.333374)" fill="#9478FC" fill-opacity="0.8"/>
<rect width="4.0904" height="120.667" transform="matrix(-1 0 0 1 1310.97 0.333374)" fill="#9478FC" fill-opacity="0.8"/>
</g>
</g>
<rect x="0.5" y="0.5" width="1325" height="361" rx="7.5" stroke="black" stroke-opacity="0.1"/>
<defs>
<clipPath id="clip0_1917_639">
<rect width="1326" height="362" rx="8" fill="white"/>
</clipPath>
<clipPath id="clip1_1917_639">
<rect width="1523.67" height="120.667" fill="white" transform="translate(-99 121)"/>
</clipPath>
<clipPath id="clip2_1917_639">
<rect width="1657.29" height="120.667" fill="white" transform="translate(-331 241)"/>
</clipPath>
<clipPath id="clip3_1917_639">
<rect width="1332.11" height="121" fill="white"/>
</clipPath>
</defs>
</svg>
